<svg width="59" height="59" viewBox="0 0 59 59" fill="none" xmlns="http://www.w3.org/2000/svg">
<circle cx="29.5" cy="29.5" r="29.5" fill="#E4E4E4"/>
<line x1="38.6884" y1="35.243" x2="38.6884" y2="23.7319" stroke="black" stroke-width="3" stroke-linecap="round"/>
<path d="M18.606 28.0118C18.0202 28.5976 18.0202 29.5473 18.606 30.1331L28.152 39.6791C28.7377 40.2649 29.6875 40.2649 30.2733 39.6791C30.8591 39.0933 30.8591 38.1435 30.2733 37.5577L21.788 29.0725L30.2733 20.5872C30.8591 20.0014 30.8591 19.0516 30.2733 18.4659C29.6875 17.8801 28.7377 17.8801 28.152 18.4659L18.606 28.0118ZM34.1777 30.5725C35.0062 30.5725 35.6777 29.9009 35.6777 29.0725C35.6777 28.244 35.0062 27.5725 34.1777 27.5725V30.5725ZM19.6667 30.5725H34.1777V27.5725H19.6667V30.5725Z" fill="black"/>
</svg>
