<svg width="59" height="59" viewBox="0 0 59 59" fill="none" xmlns="http://www.w3.org/2000/svg">
<circle cx="29.5" cy="29.5" r="29.5" transform="rotate(-180 29.5 29.5)" fill="#E4E4E4"/>
<line x1="20.3116" y1="23.757" x2="20.3116" y2="35.2681" stroke="black" stroke-width="3" stroke-linecap="round"/>
<path d="M40.394 30.9882C40.9798 30.4024 40.9798 29.4527 40.394 28.8669L30.848 19.3209C30.2623 18.7351 29.3125 18.7351 28.7267 19.3209C28.1409 19.9067 28.1409 20.8565 28.7267 21.4423L37.212 29.9275L28.7267 38.4128C28.1409 38.9986 28.1409 39.9484 28.7267 40.5341C29.3125 41.1199 30.2623 41.1199 30.848 40.5341L40.394 30.9882ZM24.8223 28.4275C23.9938 28.4275 23.3223 29.0991 23.3223 29.9275C23.3223 30.756 23.9938 31.4275 24.8223 31.4275V28.4275ZM39.3333 28.4275L24.8223 28.4275V31.4275L39.3333 31.4275V28.4275Z" fill="black"/>
</svg>
